<mxfile host="65bd71144e">
    <diagram id="F-IY7eesCbHOPiWXTCUD" name="第 1 页">
        <mxGraphModel dx="633" dy="447" grid="1" gridSize="10" guides="1" tooltips="1" connect="1" arrows="1" fold="1" page="1" pageScale="1" pageWidth="827" pageHeight="1169" math="0" shadow="0">
            <root>
                <mxCell id="0"/>
                <mxCell id="1" parent="0"/>
                <mxCell id="3" value="" style="endArrow=classic;html=1;" edge="1" parent="1" target="4">
                    <mxGeometry width="50" height="50" relative="1" as="geometry">
                        <mxPoint x="30" y="130" as="sourcePoint"/>
                        <mxPoint x="100" y="130" as="targetPoint"/>
                        <Array as="points">
                            <mxPoint x="30" y="130"/>
                        </Array>
                    </mxGeometry>
                </mxCell>
                <mxCell id="5" value="输入航班" style="edgeLabel;html=1;align=center;verticalAlign=middle;resizable=0;points=[];" vertex="1" connectable="0" parent="3">
                    <mxGeometry x="-0.5143" y="1" relative="1" as="geometry">
                        <mxPoint x="13" y="1" as="offset"/>
                    </mxGeometry>
                </mxCell>
                <mxCell id="6" style="edgeStyle=none;html=1;" edge="1" parent="1" source="4" target="7">
                    <mxGeometry relative="1" as="geometry">
                        <mxPoint x="240" y="130" as="targetPoint"/>
                    </mxGeometry>
                </mxCell>
                <mxCell id="4" value="检测输入是否合法" style="whiteSpace=wrap;html=1;aspect=fixed;" vertex="1" parent="1">
                    <mxGeometry x="110" y="90" width="80" height="80" as="geometry"/>
                </mxCell>
                <mxCell id="9" style="edgeStyle=none;html=1;" edge="1" parent="1" source="7" target="10">
                    <mxGeometry relative="1" as="geometry">
                        <mxPoint x="350" y="130" as="targetPoint"/>
                    </mxGeometry>
                </mxCell>
                <mxCell id="11" value="有" style="edgeLabel;html=1;align=center;verticalAlign=middle;resizable=0;points=[];" vertex="1" connectable="0" parent="9">
                    <mxGeometry x="-0.275" y="2" relative="1" as="geometry">
                        <mxPoint as="offset"/>
                    </mxGeometry>
                </mxCell>
                <mxCell id="13" style="edgeStyle=none;html=1;" edge="1" parent="1" source="7">
                    <mxGeometry relative="1" as="geometry">
                        <mxPoint x="270" y="230" as="targetPoint"/>
                    </mxGeometry>
                </mxCell>
                <mxCell id="14" value="没有余票" style="edgeLabel;html=1;align=center;verticalAlign=middle;resizable=0;points=[];" vertex="1" connectable="0" parent="13">
                    <mxGeometry x="-0.3095" relative="1" as="geometry">
                        <mxPoint as="offset"/>
                    </mxGeometry>
                </mxCell>
                <mxCell id="7" value="检测是否有余票" style="whiteSpace=wrap;html=1;aspect=fixed;" vertex="1" parent="1">
                    <mxGeometry x="230" y="90" width="80" height="80" as="geometry"/>
                </mxCell>
                <mxCell id="15" style="edgeStyle=none;html=1;" edge="1" parent="1" source="10">
                    <mxGeometry relative="1" as="geometry">
                        <mxPoint x="420" y="230" as="targetPoint"/>
                    </mxGeometry>
                </mxCell>
                <mxCell id="10" value="数据库余票-1" style="whiteSpace=wrap;html=1;aspect=fixed;" vertex="1" parent="1">
                    <mxGeometry x="380" y="90" width="80" height="80" as="geometry"/>
                </mxCell>
                <mxCell id="16" value="返回false" style="text;html=1;align=center;verticalAlign=middle;resizable=0;points=[];autosize=1;strokeColor=none;fillColor=none;" vertex="1" parent="1">
                    <mxGeometry x="240" y="240" width="60" height="20" as="geometry"/>
                </mxCell>
                <mxCell id="17" value="返回ticket_id" style="text;html=1;align=center;verticalAlign=middle;resizable=0;points=[];autosize=1;strokeColor=none;fillColor=none;" vertex="1" parent="1">
                    <mxGeometry x="380" y="240" width="80" height="20" as="geometry"/>
                </mxCell>
            </root>
        </mxGraphModel>
    </diagram>
</mxfile>